<?xml version="1.0" encoding="utf-8"?>
<!-- Generator: Adobe Illustrator 26.0.3, SVG Export Plug-In . SVG Version: 6.00 Build 0)  -->
<svg version="1.1" id="Layer_1" xmlns="http://www.w3.org/2000/svg" xmlns:xlink="http://www.w3.org/1999/xlink" x="0px" y="0px"
	 viewBox="0 0 1920 1080" style="enable-background:new 0 0 1920 1080;" xml:space="preserve">
<style type="text/css">
	.st0{fill:#1D1D1B;stroke:#1D1D1B;stroke-miterlimit:10;}
	.st1{opacity:0.9;fill:#1D1D1B;stroke:#1D1D1B;stroke-miterlimit:10;}
	.st2{opacity:0.8;fill:#1D1D1B;stroke:#1D1D1B;stroke-miterlimit:10;}
	.st3{opacity:0.7;fill:#1D1D1B;stroke:#1D1D1B;stroke-miterlimit:10;}
	.st4{opacity:0.6;fill:#1D1D1B;stroke:#1D1D1B;stroke-miterlimit:10;}
	.st5{opacity:0.5;fill:#1D1D1B;stroke:#1D1D1B;stroke-miterlimit:10;}
	.st6{opacity:0.4;fill:#1D1D1B;stroke:#1D1D1B;stroke-miterlimit:10;}
	.st7{opacity:0.3;fill:#1D1D1B;stroke:#1D1D1B;stroke-miterlimit:10;}
	.st8{opacity:0.2;fill:#1D1D1B;stroke:#1D1D1B;stroke-miterlimit:10;}
</style>
<polygon class="st0" points="26.21,1080 111.67,858.18 -26.21,858.18 -111.67,1080 "/>
<polygon class="st1" points="249.55,1100 335,878.18 197.12,878.18 111.67,1100 "/>
<polygon class="st2" points="472.88,1120 558.33,898.18 420.46,898.18 335,1120 "/>
<polygon class="st3" points="696.21,1140 781.67,918.18 643.79,918.18 558.33,1140 "/>
<polygon class="st4" points="919.55,1160 1005,938.18 867.12,938.18 781.67,1160 "/>
<polygon class="st5" points="1142.88,1180 1228.34,958.18 1090.46,958.18 1005,1180 "/>
<polygon class="st6" points="1366.21,1200 1451.67,978.18 1313.79,978.18 1228.34,1200 "/>
<polygon class="st7" points="1589.55,1220 1675,998.18 1537.12,998.18 1451.67,1220 "/>
<polygon class="st8" points="1812.88,1230 1898.34,1008.18 1760.46,1008.18 1675,1230 "/>
</svg>
